<svg width="13.000000" height="20.000000" viewBox="0 0 13 20" fill="none" xmlns="http://www.w3.org/2000/svg" xmlns:xlink="http://www.w3.org/1999/xlink">
	<desc>
			Created with Pixso.
	</desc>
	<defs>
		<clipPath id="clip3_93">
			<rect id="Vector" width="13.000000" height="20.000000" fill="white" fill-opacity="0"/>
		</clipPath>
	</defs>
	<g clip-path="url(#clip3_93)">
		<path id="path" d="M6.97675 3.72093C8 3.72093 8.83722 2.88372 8.83722 1.86047C8.83722 0.83721 8 0 6.97675 0C5.95349 0 5.11627 0.83721 5.11627 1.86047C5.11627 2.88372 5.95349 3.72093 6.97675 3.72093ZM3.53485 6.88372L1.1535 18.893C1.03253 19.4605 1.47906 20 2.06512 20C2.50232 20 2.94885 19.7023 3.05115 19.2744L4.55817 12.5581L6.51166 14.4186L6.51166 19.0698C6.51166 19.5814 6.93024 20 7.44183 20C7.95349 20 8.37207 19.5814 8.37207 19.0698L8.37207 13.8233C8.37207 13.3116 8.16742 12.8279 7.79535 12.4744L6.41858 11.1628L6.97675 8.37209C7.97211 9.52558 9.41394 10.3535 11.0326 10.614C11.5907 10.6977 12.093 10.2512 12.093 9.68372C12.093 9.22791 11.7581 8.84651 11.3023 8.77209C9.88837 8.53954 8.71631 7.70233 8.09302 6.60465L7.16278 5.11628C6.64185 4.28837 5.59998 3.95349 4.69769 4.33488L1.13489 5.84186C0.446533 6.13953 0 6.8093 0 7.56279L0 9.76744C0 10.2791 0.418579 10.6977 0.930237 10.6977C1.44183 10.6977 1.86047 10.2791 1.86047 9.76744L1.86047 7.53488L3.53485 6.88372Z" fill="#9D9D9E" fill-opacity="1.000000" fill-rule="nonzero"/>
	</g>
</svg>
